<?xml version="1.0" encoding="utf-8" ?>
<svg baseProfile="tiny" height="100%" version="1.2" width="100%" xmlns="http://www.w3.org/2000/svg" xmlns:ev="http://www.w3.org/2001/xml-events" xmlns:xlink="http://www.w3.org/1999/xlink"><defs /><polygon fill="lime" points="250.5,343.0 251.0,342.5 252.0,342.5 253.0,342.5 253.5,342.0 254.0,341.5 255.0,341.5 255.5,341.0 256.0,340.5 256.5,340.0 257.0,339.5 258.0,339.5 258.5,339.0 259.0,338.5 259.5,338.0 260.0,337.5 260.5,337.0 261.0,336.5 262.0,336.5 262.5,336.0 263.0,335.5 263.5,335.0 264.0,334.5 264.5,334.0 265.0,333.5 265.5,333.0 266.0,332.5 267.0,332.5 267.5,332.0 268.0,331.5 268.5,331.0 269.0,330.5 269.5,330.0 270.0,329.5 271.0,329.5 271.5,329.0 272.0,328.5 272.5,328.0 273.0,327.5 273.5,327.0 274.0,326.5 275.0,326.5 275.5,326.0 276.0,325.5 276.5,325.0 277.0,324.5 277.5,324.0 278.0,323.5 278.5,323.0 279.0,322.5 280.0,322.5 280.5,322.0 281.0,321.5 281.5,321.0 282.0,320.5 282.5,320.0 283.0,319.5 284.0,319.5 284.5,319.0 285.0,318.5 285.5,318.0 286.0,317.5 286.5,317.0 287.0,316.5 288.0,316.5 288.5,316.0 289.0,315.5 289.5,315.0 290.0,314.5 290.5,314.0 291.0,313.5 291.5,313.0 292.0,312.5 293.0,312.5 293.5,312.0 294.0,311.5 294.5,311.0 295.0,310.5 295.5,310.0 296.0,309.5 297.0,309.5 297.5,309.0 298.0,308.5 298.5,308.0 299.0,307.5 299.5,307.0 300.0,306.5 301.0,306.5 301.5,306.0 302.0,305.5 302.5,305.0 303.0,304.5 303.5,304.0 304.0,303.5 305.0,303.5 305.5,303.0 306.0,302.5 306.5,302.0 307.0,301.5 307.5,301.0 308.0,300.5 308.5,300.0 309.0,299.5 310.0,299.5 310.5,299.0 311.0,298.5 311.5,298.0 312.0,297.5 312.5,297.0 313.0,296.5 314.0,296.5 314.5,296.0 315.0,295.5 315.5,295.0 316.0,294.5 316.5,294.0 317.0,293.5 318.0,293.5 318.5,293.0 319.0,292.5 319.5,292.0 320.0,291.5 320.5,291.0 321.0,290.5 321.5,290.0 322.0,289.5 323.0,289.5 323.5,289.0 324.0,288.5 324.5,288.0 325.0,287.5 325.5,287.0 326.0,286.5 327.0,286.5 327.5,286.0 328.0,285.5 328.5,285.0 329.0,284.5 329.5,284.0 330.0,283.5 331.0,283.5 331.5,283.0 332.0,282.5 332.5,282.0 333.0,281.5 333.5,281.0 334.0,280.5 335.0,280.5 335.5,280.0 336.0,279.5 336.5,279.0 337.0,278.5 337.5,278.0 338.0,277.5 338.5,277.0 339.0,276.5 340.0,276.5 340.5,276.0 341.0,275.5 341.5,275.0 342.0,274.5 342.5,274.0 343.0,273.5 344.0,273.5 344.5,273.0 345.0,272.5 345.5,272.0 346.0,271.5 346.5,271.0 347.0,270.5 347.5,270.0 348.0,269.5 349.0,269.5 349.5,269.0 350.0,268.5 350.5,268.0 351.0,267.5 351.5,267.0 352.0,266.5 352.5,266.0 352.5,265.0 353.0,264.5 353.5,264.0 353.5,263.0 353.5,262.0 353.5,261.0 353.5,260.0 353.5,259.0 353.5,258.0 353.5,257.0 353.5,256.0 353.0,255.5 352.5,255.0 352.5,254.0 352.5,253.0 352.5,252.0 352.5,251.0 352.0,250.5 351.5,250.0 351.5,249.0 351.5,248.0 351.5,247.0 351.5,246.0 351.0,245.5 350.5,245.0 350.5,244.0 350.5,243.0 350.5,242.0 350.5,241.0 350.0,240.5 349.5,240.0 349.5,239.0 349.5,238.0 349.5,237.0 349.5,236.0 349.0,235.5 348.5,235.0 348.5,234.0 348.5,233.0 348.5,232.0 348.0,231.5 347.5,231.0 347.5,230.0 347.5,229.0 347.5,228.0 347.5,227.0 347.0,226.5 346.5,226.0 346.5,225.0 346.5,224.0 346.5,223.0 346.5,222.0 346.0,221.5 345.5,221.0 345.5,220.0 345.5,219.0 345.5,218.0 345.5,217.0 345.0,216.5 344.5,216.0 344.5,215.0 344.5,214.0 344.5,213.0 344.5,212.0 344.0,211.5 343.5,211.0 343.5,210.0 343.5,209.0 343.5,208.0 343.5,207.0 343.0,206.5 342.5,206.0 342.5,205.0 342.5,204.0 342.5,203.0 342.0,202.5 341.5,202.0 341.5,201.0 341.5,200.0 341.0,199.5 340.5,199.0 340.0,198.5 339.5,198.0 339.0,197.5 338.0,197.5 337.5,197.0 337.0,196.5 336.0,196.5 335.5,196.0 335.0,195.5 334.0,195.5 333.0,195.5 332.0,195.5 331.0,195.5 330.0,195.5 329.0,195.5 328.0,195.5 327.0,195.5 326.0,195.5 325.5,195.0 325.0,194.5 324.0,194.5 323.0,194.5 322.0,194.5 321.0,194.5 320.0,194.5 319.0,194.5 318.0,194.5 317.0,194.5 316.0,194.5 315.0,194.5 314.0,194.5 313.5,194.0 313.0,193.5 312.0,193.5 311.0,193.5 310.0,193.5 309.0,193.5 308.0,193.5 307.0,193.5 306.0,193.5 305.0,193.5 304.0,193.5 303.0,193.5 302.0,193.5 301.0,193.5 300.0,193.5 299.5,193.0 299.0,192.5 298.0,192.5 297.0,192.5 296.0,192.5 295.0,192.5 294.0,192.5 293.0,192.5 292.0,192.5 291.0,192.5 290.0,192.5 289.0,192.5 288.0,192.5 287.0,192.5 286.5,192.0 286.0,191.5 285.0,191.5 284.0,191.5 283.0,191.5 282.0,191.5 281.0,191.5 280.0,191.5 279.0,191.5 278.0,191.5 277.0,191.5 276.0,191.5 275.0,191.5 274.0,191.5 273.5,191.0 273.0,190.5 272.0,190.5 271.0,190.5 270.0,190.5 269.0,190.5 268.0,190.5 267.0,190.5 266.0,190.5 265.0,190.5 264.0,190.5 263.0,190.5 262.0,190.5 261.0,190.5 260.5,190.0 260.0,189.5 259.0,189.5 258.0,189.5 257.0,189.5 256.0,189.5 255.0,189.5 254.0,189.5 253.0,189.5 252.0,189.5 251.0,189.5 250.0,189.5 249.0,189.5 248.5,189.0 248.0,188.5 247.0,188.5 246.0,188.5 245.0,188.5 244.0,188.5 243.0,188.5 242.0,188.5 241.0,188.5 240.0,188.5 239.0,188.5 238.0,188.5 237.5,189.0 237.0,189.5 236.0,189.5 235.5,190.0 235.0,190.5 234.5,191.0 234.0,191.5 233.5,192.0 233.0,192.5 232.5,193.0 232.0,193.5 231.5,194.0 231.5,195.0 231.5,196.0 231.5,197.0 231.0,197.5 230.5,198.0 231.0,198.5 231.5,199.0 231.5,200.0 231.5,201.0 231.5,202.0 231.5,203.0 231.5,204.0 231.5,205.0 231.5,206.0 231.5,207.0 231.5,208.0 231.5,209.0 231.5,210.0 231.5,211.0 231.5,212.0 231.5,213.0 232.0,213.5 232.5,214.0 232.5,215.0 232.5,216.0 232.5,217.0 232.5,218.0 232.5,219.0 232.5,220.0 232.5,221.0 232.5,222.0 232.5,223.0 232.5,224.0 232.5,225.0 232.5,226.0 233.0,226.5 233.5,227.0 233.5,228.0 233.5,229.0 233.5,230.0 233.5,231.0 233.5,232.0 233.5,233.0 233.5,234.0 233.5,235.0 233.5,236.0 233.5,237.0 233.5,238.0 233.5,239.0 233.5,240.0 234.0,240.5 234.5,241.0 234.5,242.0 234.5,243.0 234.5,244.0 234.5,245.0 234.5,246.0 234.5,247.0 234.5,248.0 234.5,249.0 234.5,250.0 234.5,251.0 234.5,252.0 234.5,253.0 234.5,254.0 234.5,255.0 235.0,255.5 235.5,256.0 235.5,257.0 235.5,258.0 235.5,259.0 235.5,260.0 235.5,261.0 235.5,262.0 235.5,263.0 235.5,264.0 235.5,265.0 235.5,266.0 235.5,267.0 235.5,268.0 235.5,269.0 236.0,269.5 236.5,270.0 236.5,271.0 236.5,272.0 236.5,273.0 236.5,274.0 236.5,275.0 236.5,276.0 236.5,277.0 236.5,278.0 236.5,279.0 236.5,280.0 236.5,281.0 236.5,282.0 236.5,283.0 236.5,284.0 237.0,284.5 237.5,285.0 237.5,286.0 237.5,287.0 237.5,288.0 237.5,289.0 237.5,290.0 237.5,291.0 237.5,292.0 237.5,293.0 237.5,294.0 237.5,295.0 237.5,296.0 237.5,297.0 238.0,297.5 238.5,298.0 238.5,299.0 238.5,300.0 238.5,301.0 238.5,302.0 238.5,303.0 238.5,304.0 238.5,305.0 238.5,306.0 238.5,307.0 238.5,308.0 238.5,309.0 238.5,310.0 238.5,311.0 239.0,311.5 239.5,312.0 239.5,313.0 239.5,314.0 239.5,315.0 239.5,316.0 239.5,317.0 239.5,318.0 239.5,319.0 239.5,320.0 239.5,321.0 239.5,322.0 239.5,323.0 239.5,324.0 239.5,325.0 239.5,326.0 239.5,327.0 240.0,327.5 240.5,328.0 240.5,329.0 240.5,330.0 240.5,331.0 240.5,332.0 240.5,333.0 240.5,334.0 240.5,335.0 240.5,336.0 240.5,337.0 241.0,337.5 241.5,338.0 242.0,338.5 242.5,339.0 242.5,340.0 243.0,340.5 244.0,340.5 244.5,341.0 245.0,341.5 245.5,342.0 246.0,342.5 247.0,342.5 248.0,342.5 249.0,342.5 249.5,343.0 250.0,343.5 250.5,343.0" stroke="none" /><polygon fill="lime" points="481.5,343.0 482.0,342.5 483.0,342.5 484.0,342.5 484.5,342.0 485.0,341.5 485.5,341.0 486.0,340.5 487.0,340.5 487.5,340.0 488.0,339.5 488.5,339.0 489.0,338.5 489.5,338.0 490.0,337.5 491.0,337.5 491.5,337.0 492.0,336.5 492.5,336.0 493.0,335.5 493.5,335.0 494.0,334.5 495.0,334.5 495.5,334.0 496.0,333.5 496.5,333.0 497.0,332.5 497.5,332.0 498.0,331.5 498.5,331.0 499.0,330.5 500.0,330.5 500.5,330.0 501.0,329.5 501.5,329.0 502.0,328.5 502.5,328.0 503.0,327.5 504.0,327.5 504.5,327.0 505.0,326.5 505.5,326.0 506.0,325.5 506.5,325.0 507.0,324.5 508.0,324.5 508.5,324.0 509.0,323.5 509.5,323.0 510.0,322.5 510.5,322.0 511.0,321.5 512.0,321.5 512.5,321.0 513.0,320.5 513.5,320.0 514.0,319.5 514.5,319.0 515.0,318.5 515.5,318.0 516.0,317.5 517.0,317.5 517.5,317.0 518.0,316.5 518.5,316.0 519.0,315.5 519.5,315.0 520.0,314.5 521.0,314.5 521.5,314.0 522.0,313.5 522.5,313.0 523.0,312.5 523.5,312.0 524.0,311.5 525.0,311.5 525.5,311.0 526.0,310.5 526.5,310.0 527.0,309.5 527.5,309.0 528.0,308.5 528.5,308.0 529.0,307.5 530.0,307.5 530.5,307.0 531.0,306.5 531.5,306.0 532.0,305.5 532.5,305.0 533.0,304.5 534.0,304.5 534.5,304.0 535.0,303.5 535.5,303.0 536.0,302.5 536.5,302.0 537.0,301.5 538.0,301.5 538.5,301.0 539.0,300.5 539.5,300.0 540.0,299.5 540.5,299.0 541.0,298.5 542.0,298.5 542.5,298.0 543.0,297.5 543.5,297.0 544.0,296.5 544.5,296.0 545.0,295.5 545.5,295.0 546.0,294.5 547.0,294.5 547.5,294.0 548.0,293.5 548.5,293.0 549.0,292.5 549.5,292.0 550.0,291.5 551.0,291.5 551.5,291.0 552.0,290.5 552.5,290.0 553.0,289.5 553.5,289.0 554.0,288.5 555.0,288.5 555.5,288.0 556.0,287.5 556.5,287.0 557.0,286.5 557.5,286.0 558.0,285.5 558.5,285.0 559.0,284.5 560.0,284.5 560.5,284.0 561.0,283.5 561.5,283.0 562.0,282.5 562.5,282.0 563.0,281.5 564.0,281.5 564.5,281.0 565.0,280.5 565.5,280.0 566.0,279.5 566.5,279.0 567.0,278.5 568.0,278.5 568.5,278.0 569.0,277.5 569.5,277.0 570.0,276.5 570.5,276.0 571.0,275.5 571.5,275.0 572.0,274.5 573.0,274.5 573.5,274.0 574.0,273.5 574.5,273.0 575.0,272.5 575.5,272.0 576.0,271.5 577.0,271.5 577.5,271.0 578.0,270.5 578.5,270.0 579.0,269.5 579.5,269.0 580.0,268.5 581.0,268.5 581.5,268.0 582.0,267.5 582.5,267.0 582.5,266.0 583.0,265.5 583.5,265.0 583.5,264.0 584.0,263.5 584.5,263.0 584.5,262.0 584.5,261.0 584.5,260.0 584.5,259.0 584.5,258.0 584.0,257.5 583.5,257.0 583.5,256.0 583.5,255.0 583.5,254.0 583.5,253.0 583.0,252.5 582.5,252.0 582.5,251.0 582.5,250.0 582.5,249.0 582.5,248.0 582.0,247.5 581.5,247.0 581.5,246.0 581.5,245.0 581.5,244.0 581.0,243.5 580.5,243.0 580.5,242.0 580.5,241.0 580.5,240.0 580.5,239.0 580.0,238.5 579.5,238.0 579.5,237.0 579.5,236.0 579.5,235.0 579.5,234.0 579.0,233.5 578.5,233.0 578.5,232.0 578.5,231.0 578.5,230.0 578.5,229.0 578.0,228.5 577.5,228.0 577.5,227.0 577.5,226.0 577.5,225.0 577.5,224.0 577.0,223.5 576.5,223.0 576.5,222.0 576.5,221.0 576.5,220.0 576.5,219.0 576.0,218.5 575.5,218.0 575.5,217.0 575.5,216.0 575.5,215.0 575.0,214.5 574.5,214.0 574.5,213.0 574.5,212.0 574.5,211.0 574.5,210.0 574.0,209.5 573.5,209.0 573.5,208.0 573.5,207.0 573.5,206.0 573.5,205.0 573.0,204.5 572.5,204.0 572.5,203.0 572.5,202.0 572.5,201.0 572.0,200.5 571.5,200.0 571.0,199.5 570.5,199.0 570.0,198.5 569.5,198.0 569.0,197.5 568.5,197.0 568.0,196.5 567.0,196.5 566.0,196.5 565.5,196.0 565.0,195.5 564.0,195.5 563.0,195.5 562.0,195.5 561.0,195.5 560.0,195.5 559.0,195.5 558.0,195.5 557.0,195.5 556.5,195.0 556.0,194.5 555.0,194.5 554.0,194.5 553.0,194.5 552.0,194.5 551.0,194.5 550.0,194.5 549.0,194.5 548.0,194.5 547.0,194.5 546.0,194.5 545.0,194.5 544.0,194.5 543.5,194.0 543.0,193.5 542.0,193.5 541.0,193.5 540.0,193.5 539.0,193.5 538.0,193.5 537.0,193.5 536.0,193.5 535.0,193.5 534.0,193.5 533.0,193.5 532.0,193.5 531.0,193.5 530.0,193.5 529.5,193.0 529.0,192.5 528.0,192.5 527.0,192.5 526.0,192.5 525.0,192.5 524.0,192.5 523.0,192.5 522.0,192.5 521.0,192.5 520.0,192.5 519.0,192.5 518.0,192.5 517.0,192.5 516.5,192.0 516.0,191.5 515.0,191.5 514.0,191.5 513.0,191.5 512.0,191.5 511.0,191.5 510.0,191.5 509.0,191.5 508.0,191.5 507.0,191.5 506.0,191.5 505.0,191.5 504.0,191.5 503.5,191.0 503.0,190.5 502.0,190.5 501.0,190.5 500.0,190.5 499.0,190.5 498.0,190.5 497.0,190.5 496.0,190.5 495.0,190.5 494.0,190.5 493.0,190.5 492.0,190.5 491.5,190.0 491.0,189.5 490.0,189.5 489.0,189.5 488.0,189.5 487.0,189.5 486.0,189.5 485.0,189.5 484.0,189.5 483.0,189.5 482.0,189.5 481.0,189.5 480.0,189.5 479.5,189.0 479.0,188.5 478.0,188.5 477.0,188.5 476.0,188.5 475.0,188.5 474.0,188.5 473.0,188.5 472.0,188.5 471.0,188.5 470.0,188.5 469.0,188.5 468.0,188.5 467.5,189.0 467.0,189.5 466.0,189.5 465.5,190.0 465.0,190.5 464.5,191.0 464.0,191.5 463.5,192.0 463.0,192.5 462.5,193.0 462.5,194.0 462.5,195.0 462.0,195.5 461.5,196.0 461.5,197.0 461.5,198.0 461.5,199.0 461.5,200.0 461.5,201.0 461.5,202.0 461.5,203.0 461.5,204.0 462.0,204.5 462.5,205.0 462.5,206.0 462.5,207.0 462.5,208.0 462.5,209.0 462.5,210.0 462.5,211.0 462.5,212.0 462.5,213.0 462.5,214.0 462.5,215.0 462.5,216.0 462.5,217.0 462.5,218.0 462.5,219.0 463.0,219.5 463.5,220.0 463.5,221.0 463.5,222.0 463.5,223.0 463.5,224.0 463.5,225.0 463.5,226.0 463.5,227.0 463.5,228.0 463.5,229.0 463.5,230.0 463.5,231.0 463.5,232.0 463.5,233.0 463.5,234.0 464.0,234.5 464.5,235.0 464.5,236.0 464.5,237.0 464.5,238.0 464.5,239.0 464.5,240.0 464.5,241.0 464.5,242.0 464.5,243.0 464.5,244.0 464.5,245.0 464.5,246.0 464.5,247.0 464.5,248.0 465.0,248.5 465.5,249.0 465.5,250.0 465.5,251.0 465.5,252.0 465.5,253.0 465.5,254.0 465.5,255.0 465.5,256.0 465.5,257.0 465.5,258.0 465.5,259.0 465.5,260.0 465.5,261.0 465.5,262.0 466.0,262.5 466.5,263.0 466.5,264.0 466.5,265.0 466.5,266.0 466.5,267.0 466.5,268.0 466.5,269.0 466.5,270.0 466.5,271.0 466.5,272.0 466.5,273.0 466.5,274.0 466.5,275.0 466.5,276.0 467.0,276.5 467.5,277.0 467.5,278.0 467.5,279.0 467.5,280.0 467.5,281.0 467.5,282.0 467.5,283.0 467.5,284.0 467.5,285.0 467.5,286.0 467.5,287.0 467.5,288.0 467.5,289.0 467.5,290.0 467.5,291.0 468.0,291.5 468.5,292.0 468.5,293.0 468.5,294.0 468.5,295.0 468.5,296.0 468.5,297.0 468.5,298.0 468.5,299.0 468.5,300.0 468.5,301.0 468.5,302.0 468.5,303.0 468.5,304.0 468.5,305.0 468.5,306.0 469.0,306.5 469.5,307.0 469.5,308.0 469.5,309.0 469.5,310.0 469.5,311.0 469.5,312.0 469.5,313.0 469.5,314.0 469.5,315.0 469.5,316.0 469.5,317.0 469.5,318.0 469.5,319.0 470.0,319.5 470.5,320.0 470.5,321.0 470.5,322.0 470.5,323.0 470.5,324.0 470.5,325.0 470.5,326.0 470.5,327.0 470.5,328.0 470.5,329.0 470.5,330.0 470.5,331.0 470.5,332.0 470.5,333.0 471.0,333.5 471.5,334.0 471.5,335.0 471.5,336.0 471.5,337.0 472.0,337.5 472.5,338.0 472.5,339.0 473.0,339.5 473.5,340.0 474.0,340.5 474.5,341.0 475.0,341.5 476.0,341.5 476.5,342.0 477.0,342.5 478.0,342.5 479.0,342.5 479.5,343.0 480.0,343.5 481.0,343.5 481.5,343.0" stroke="none" /><polygon fill="lime" points="252.0,322.5 251.0,322.5 250.5,322.0 250.0,321.5 249.5,321.0 249.5,320.0 249.0,319.5 248.5,319.0 248.5,318.0 248.5,317.0 248.5,316.0 248.5,315.0 248.5,314.0 248.5,313.0 248.5,312.0 248.5,311.0 248.5,310.0 248.5,309.0 248.5,308.0 248.5,307.0 248.5,306.0 248.5,305.0 248.5,304.0 248.0,303.5 247.5,303.0 247.5,302.0 247.5,301.0 247.5,300.0 247.5,299.0 247.5,298.0 247.5,297.0 247.5,296.0 247.5,295.0 247.5,294.0 247.5,293.0 247.5,292.0 247.5,291.0 247.5,290.0 247.0,289.5 246.5,289.0 246.5,288.0 246.5,287.0 246.5,286.0 246.5,285.0 246.5,284.0 246.5,283.0 246.5,282.0 246.5,281.0 246.5,280.0 246.5,279.0 246.5,278.0 246.5,277.0 246.5,276.0 246.0,275.5 245.5,275.0 245.5,274.0 245.5,273.0 245.5,272.0 245.5,271.0 245.5,270.0 245.5,269.0 245.5,268.0 245.5,267.0 245.5,266.0 245.5,265.0 245.5,264.0 245.5,263.0 245.0,262.5 244.5,262.0 244.5,261.0 244.5,260.0 244.5,259.0 244.5,258.0 244.5,257.0 244.5,256.0 244.5,255.0 244.5,254.0 244.5,253.0 244.5,252.0 244.5,251.0 244.5,250.0 244.5,249.0 244.5,248.0 244.0,247.5 243.5,247.0 243.5,246.0 243.5,245.0 243.5,244.0 243.5,243.0 243.5,242.0 243.5,241.0 243.5,240.0 243.5,239.0 243.5,238.0 243.5,237.0 243.5,236.0 243.5,235.0 243.5,234.0 243.0,233.5 242.5,233.0 242.5,232.0 242.5,231.0 242.5,230.0 242.5,229.0 242.5,228.0 242.5,227.0 242.5,226.0 242.5,225.0 242.5,224.0 242.5,223.0 242.5,222.0 242.5,221.0 242.5,220.0 242.5,219.0 242.0,218.5 241.5,218.0 241.5,217.0 241.5,216.0 241.5,215.0 241.5,214.0 241.5,213.0 241.5,212.0 241.5,211.0 241.5,210.0 241.5,209.0 241.5,208.0 241.5,207.0 241.5,206.0 241.5,205.0 241.0,204.5 240.5,204.0 240.5,203.0 240.5,202.0 241.0,201.5 241.5,201.0 241.5,200.0 242.0,199.5 242.5,199.0 243.0,198.5 244.0,198.5 245.0,198.5 246.0,198.5 247.0,198.5 248.0,198.5 249.0,198.5 250.0,198.5 251.0,198.5 252.0,198.5 253.0,198.5 253.5,199.0 254.0,199.5 255.0,199.5 256.0,199.5 257.0,199.5 258.0,199.5 259.0,199.5 260.0,199.5 261.0,199.5 262.0,199.5 263.0,199.5 264.0,199.5 265.0,199.5 266.0,199.5 266.5,200.0 267.0,200.5 268.0,200.5 269.0,200.5 270.0,200.5 271.0,200.5 272.0,200.5 273.0,200.5 274.0,200.5 275.0,200.5 276.0,200.5 277.0,200.5 278.0,200.5 279.0,200.5 279.5,201.0 280.0,201.5 281.0,201.5 282.0,201.5 283.0,201.5 284.0,201.5 285.0,201.5 286.0,201.5 287.0,201.5 288.0,201.5 289.0,201.5 290.0,201.5 291.0,201.5 292.0,201.5 292.5,202.0 293.0,202.5 294.0,202.5 295.0,202.5 296.0,202.5 297.0,202.5 298.0,202.5 299.0,202.5 300.0,202.5 301.0,202.5 302.0,202.5 303.0,202.5 304.0,202.5 305.0,202.5 306.0,202.5 306.5,203.0 307.0,203.5 308.0,203.5 309.0,203.5 310.0,203.5 311.0,203.5 312.0,203.5 313.0,203.5 314.0,203.5 315.0,203.5 316.0,203.5 317.0,203.5 318.0,203.5 318.5,204.0 319.0,204.5 320.0,204.5 321.0,204.5 322.0,204.5 323.0,204.5 324.0,204.5 324.5,205.0 325.0,205.5 325.5,206.0 326.0,206.5 326.5,207.0 326.5,208.0 326.0,208.5 325.5,209.0 325.5,210.0 325.0,210.5 324.5,211.0 324.0,211.5 323.5,212.0 323.5,213.0 323.0,213.5 322.5,214.0 322.5,215.0 322.0,215.5 321.5,216.0 321.0,216.5 320.5,217.0 320.5,218.0 320.0,218.5 319.5,219.0 319.0,219.5 318.5,220.0 318.5,221.0 318.0,221.5 317.5,222.0 317.0,222.5 316.5,223.0 316.5,224.0 316.0,224.5 315.5,225.0 315.0,225.5 314.5,226.0 314.5,227.0 314.0,227.5 313.5,228.0 313.5,229.0 313.0,229.5 312.5,230.0 312.0,230.5 311.5,231.0 311.5,232.0 311.0,232.5 310.5,233.0 310.0,233.5 309.5,234.0 309.5,235.0 309.0,235.5 308.5,236.0 308.0,236.5 307.5,237.0 307.5,238.0 307.0,238.5 306.5,239.0 306.0,239.5 305.5,240.0 305.5,241.0 305.0,241.5 304.5,242.0 304.5,243.0 304.0,243.5 303.5,244.0 303.0,244.5 302.5,245.0 302.5,246.0 302.0,246.5 301.5,247.0 301.0,247.5 300.5,248.0 300.5,249.0 300.0,249.5 299.5,250.0 299.0,250.5 298.5,251.0 298.5,252.0 298.0,252.5 297.5,253.0 297.0,253.5 296.5,254.0 296.5,255.0 296.0,255.5 295.5,256.0 295.5,257.0 295.0,257.5 294.5,258.0 294.0,258.5 293.5,259.0 293.5,260.0 293.0,260.5 292.5,261.0 292.0,261.5 291.5,262.0 291.5,263.0 291.0,263.5 290.5,264.0 290.0,264.5 289.5,265.0 289.5,266.0 289.0,266.5 288.5,267.0 288.0,267.5 287.5,268.0 287.5,269.0 287.0,269.5 286.5,270.0 286.0,270.5 285.5,271.0 285.5,272.0 285.0,272.5 284.5,273.0 284.5,274.0 284.0,274.5 283.5,275.0 283.0,275.5 282.5,276.0 282.5,277.0 282.0,277.5 281.5,278.0 281.0,278.5 280.5,279.0 280.5,280.0 280.0,280.5 279.5,281.0 279.0,281.5 278.5,282.0 278.5,283.0 278.0,283.5 277.5,284.0 277.5,285.0 277.0,285.5 276.5,286.0 276.0,286.5 275.5,287.0 275.5,288.0 275.0,288.5 274.5,289.0 274.0,289.5 273.5,290.0 273.5,291.0 273.0,291.5 272.5,292.0 272.0,292.5 271.5,293.0 271.5,294.0 271.0,294.5 270.5,295.0 270.5,296.0 270.0,296.5 269.5,297.0 269.0,297.5 268.5,298.0 268.5,299.0 268.0,299.5 267.5,300.0 267.0,300.5 266.5,301.0 266.5,302.0 266.0,302.5 265.5,303.0 265.0,303.5 264.5,304.0 264.5,305.0 264.0,305.5 263.5,306.0 263.0,306.5 262.5,307.0 262.5,308.0 262.0,308.5 261.5,309.0 261.5,310.0 261.0,310.5 260.5,311.0 260.0,311.5 259.5,312.0 259.5,313.0 259.0,313.5 258.5,314.0 258.0,314.5 257.5,315.0 257.5,316.0 257.0,316.5 256.5,317.0 256.0,317.5 255.5,318.0 255.5,319.0 255.0,319.5 254.5,320.0 254.0,320.5 253.5,321.0 253.0,321.5 252.5,322.0 252.0,322.5" stroke="none" /><polygon fill="lime" points="482.0,322.5 481.5,322.0 481.0,321.5 480.5,321.0 480.0,320.5 479.5,320.0 479.5,319.0 479.5,318.0 479.5,317.0 479.5,316.0 479.5,315.0 479.5,314.0 479.5,313.0 479.5,312.0 479.0,311.5 478.5,311.0 478.5,310.0 478.5,309.0 478.5,308.0 478.5,307.0 478.5,306.0 478.5,305.0 478.5,304.0 478.5,303.0 478.5,302.0 478.5,301.0 478.5,300.0 478.5,299.0 478.5,298.0 478.0,297.5 477.5,297.0 477.5,296.0 477.5,295.0 477.5,294.0 477.5,293.0 477.5,292.0 477.5,291.0 477.5,290.0 477.5,289.0 477.5,288.0 477.5,287.0 477.5,286.0 477.5,285.0 477.5,284.0 477.0,283.5 476.5,283.0 476.5,282.0 476.5,281.0 476.5,280.0 476.5,279.0 476.5,278.0 476.5,277.0 476.5,276.0 476.5,275.0 476.5,274.0 476.5,273.0 476.5,272.0 476.5,271.0 476.5,270.0 476.5,269.0 476.0,268.5 475.5,268.0 475.5,267.0 475.5,266.0 475.5,265.0 475.5,264.0 475.5,263.0 475.5,262.0 475.5,261.0 475.5,260.0 475.5,259.0 475.5,258.0 475.5,257.0 475.5,256.0 475.5,255.0 475.0,254.5 474.5,254.0 474.5,253.0 474.5,252.0 474.5,251.0 474.5,250.0 474.5,249.0 474.5,248.0 474.5,247.0 474.5,246.0 474.5,245.0 474.5,244.0 474.5,243.0 474.5,242.0 474.5,241.0 474.0,240.5 473.5,240.0 473.5,239.0 473.5,238.0 473.5,237.0 473.5,236.0 473.5,235.0 473.5,234.0 473.5,233.0 473.5,232.0 473.5,231.0 473.5,230.0 473.5,229.0 473.5,228.0 473.5,227.0 473.0,226.5 472.5,226.0 472.5,225.0 472.5,224.0 472.5,223.0 472.5,222.0 472.5,221.0 472.5,220.0 472.5,219.0 472.5,218.0 472.5,217.0 472.5,216.0 472.5,215.0 472.5,214.0 472.5,213.0 472.5,212.0 472.0,211.5 471.5,211.0 471.5,210.0 471.5,209.0 471.5,208.0 471.5,207.0 471.5,206.0 471.5,205.0 471.5,204.0 471.5,203.0 471.5,202.0 471.5,201.0 471.5,200.0 472.0,199.5 472.5,199.0 473.0,198.5 474.0,198.5 475.0,198.5 476.0,198.5 477.0,198.5 478.0,198.5 479.0,198.5 480.0,198.5 481.0,198.5 482.0,198.5 483.0,198.5 484.0,198.5 484.5,199.0 485.0,199.5 486.0,199.5 487.0,199.5 488.0,199.5 489.0,199.5 490.0,199.5 491.0,199.5 492.0,199.5 493.0,199.5 494.0,199.5 495.0,199.5 496.0,199.5 496.5,200.0 497.0,200.5 498.0,200.5 499.0,200.5 500.0,200.5 501.0,200.5 502.0,200.5 503.0,200.5 504.0,200.5 505.0,200.5 506.0,200.5 507.0,200.5 508.0,200.5 509.0,200.5 509.5,201.0 510.0,201.5 511.0,201.5 512.0,201.5 513.0,201.5 514.0,201.5 515.0,201.5 516.0,201.5 517.0,201.5 518.0,201.5 519.0,201.5 520.0,201.5 521.0,201.5 522.0,201.5 523.0,201.5 523.5,202.0 524.0,202.5 525.0,202.5 526.0,202.5 527.0,202.5 528.0,202.5 529.0,202.5 530.0,202.5 531.0,202.5 532.0,202.5 533.0,202.5 534.0,202.5 535.0,202.5 536.0,202.5 536.5,203.0 537.0,203.5 538.0,203.5 539.0,203.5 540.0,203.5 541.0,203.5 542.0,203.5 543.0,203.5 544.0,203.5 545.0,203.5 546.0,203.5 547.0,203.5 548.0,203.5 548.5,204.0 549.0,204.5 550.0,204.5 551.0,204.5 552.0,204.5 553.0,204.5 554.0,204.5 555.0,204.5 555.5,205.0 556.0,205.5 556.5,206.0 556.5,207.0 556.5,208.0 556.5,209.0 556.0,209.5 555.5,210.0 555.5,211.0 555.0,211.5 554.5,212.0 554.0,212.5 553.5,213.0 553.5,214.0 553.0,214.5 552.5,215.0 552.0,215.5 551.5,216.0 551.5,217.0 551.0,217.5 550.5,218.0 550.0,218.5 549.5,219.0 549.5,220.0 549.0,220.5 548.5,221.0 548.5,222.0 548.0,222.5 547.5,223.0 547.0,223.5 546.5,224.0 546.5,225.0 546.0,225.5 545.5,226.0 545.0,226.5 544.5,227.0 544.5,228.0 544.0,228.5 543.5,229.0 543.0,229.5 542.5,230.0 542.5,231.0 542.0,231.5 541.5,232.0 541.0,232.5 540.5,233.0 540.5,234.0 540.0,234.5 539.5,235.0 539.0,235.5 538.5,236.0 538.5,237.0 538.0,237.5 537.5,238.0 537.5,239.0 537.0,239.5 536.5,240.0 536.0,240.5 535.5,241.0 535.5,242.0 535.0,242.5 534.5,243.0 534.0,243.5 533.5,244.0 533.5,245.0 533.0,245.5 532.5,246.0 532.0,246.5 531.5,247.0 531.5,248.0 531.0,248.5 530.5,249.0 530.5,250.0 530.0,250.5 529.5,251.0 529.0,251.5 528.5,252.0 528.5,253.0 528.0,253.5 527.5,254.0 527.0,254.5 526.5,255.0 526.5,256.0 526.0,256.5 525.5,257.0 525.0,257.5 524.5,258.0 524.5,259.0 524.0,259.5 523.5,260.0 523.0,260.5 522.5,261.0 522.5,262.0 522.0,262.5 521.5,263.0 521.0,263.5 520.5,264.0 520.5,265.0 520.0,265.5 519.5,266.0 519.5,267.0 519.0,267.5 518.5,268.0 518.0,268.5 517.5,269.0 517.5,270.0 517.0,270.5 516.5,271.0 516.0,271.5 515.5,272.0 515.5,273.0 515.0,273.5 514.5,274.0 514.0,274.5 513.5,275.0 513.5,276.0 513.0,276.5 512.5,277.0 512.5,278.0 512.0,278.5 511.5,279.0 511.0,279.5 510.5,280.0 510.5,281.0 510.0,281.5 509.5,282.0 509.0,282.5 508.5,283.0 508.5,284.0 508.0,284.5 507.5,285.0 507.0,285.5 506.5,286.0 506.5,287.0 506.0,287.5 505.5,288.0 505.0,288.5 504.5,289.0 504.5,290.0 504.0,290.5 503.5,291.0 503.5,292.0 503.0,292.5 502.5,293.0 502.0,293.5 501.5,294.0 501.5,295.0 501.0,295.5 500.5,296.0 500.0,296.5 499.5,297.0 499.5,298.0 499.0,298.5 498.5,299.0 498.0,299.5 497.5,300.0 497.5,301.0 497.0,301.5 496.5,302.0 496.0,302.5 495.5,303.0 495.5,304.0 495.0,304.5 494.5,305.0 494.5,306.0 494.0,306.5 493.5,307.0 493.0,307.5 492.5,308.0 492.5,309.0 492.0,309.5 491.5,310.0 491.0,310.5 490.5,311.0 490.5,312.0 490.0,312.5 489.5,313.0 489.0,313.5 488.5,314.0 488.5,315.0 488.0,315.5 487.5,316.0 487.0,316.5 486.5,317.0 486.5,318.0 486.0,318.5 485.5,319.0 485.5,320.0 485.0,320.5 484.5,321.0 484.0,321.5 483.0,321.5 482.5,322.0 482.0,322.5" stroke="none" /><polygon fill="lime" points="113.5,478.0 114.0,477.5 115.0,477.5 116.0,477.5 117.0,477.5 117.5,477.0 118.0,476.5 118.5,476.0 119.0,475.5 120.0,475.5 120.5,475.0 121.0,474.5 121.5,474.0 122.0,473.5 122.5,473.0 123.0,472.5 124.0,472.5 124.5,472.0 125.0,471.5 125.5,471.0 126.0,470.5 126.5,470.0 127.0,469.5 127.5,469.0 128.0,468.5 129.0,468.5 129.5,468.0 130.0,467.5 130.5,467.0 131.0,466.5 131.5,466.0 132.0,465.5 133.0,465.5 133.5,465.0 134.0,464.5 134.5,464.0 135.0,463.5 135.5,463.0 136.0,462.5 137.0,462.5 137.5,462.0 138.0,461.5 138.5,461.0 139.0,460.5 139.5,460.0 140.0,459.5 141.0,459.5 141.5,459.0 142.0,458.5 142.5,458.0 143.0,457.5 143.5,457.0 144.0,456.5 144.5,456.0 145.0,455.5 146.0,455.5 146.5,455.0 147.0,454.5 147.5,454.0 148.0,453.5 148.5,453.0 149.0,452.5 150.0,452.5 150.5,452.0 151.0,451.5 151.5,451.0 152.0,450.5 152.5,450.0 153.0,449.5 154.0,449.5 154.5,449.0 155.0,448.5 155.5,448.0 156.0,447.5 156.5,447.0 157.0,446.5 157.5,446.0 158.0,445.5 159.0,445.5 159.5,445.0 160.0,444.5 160.5,444.0 161.0,443.5 161.5,443.0 162.0,442.5 163.0,442.5 163.5,442.0 164.0,441.5 164.5,441.0 165.0,440.5 165.5,440.0 166.0,439.5 167.0,439.5 167.5,439.0 168.0,438.5 168.5,438.0 169.0,437.5 169.5,437.0 170.0,436.5 170.5,436.0 171.0,435.5 172.0,435.5 172.5,435.0 173.0,434.5 173.5,434.0 174.0,433.5 174.5,433.0 175.0,432.5 176.0,432.5 176.5,432.0 177.0,431.5 177.5,431.0 178.0,430.5 178.5,430.0 179.0,429.5 180.0,429.5 180.5,429.0 181.0,428.5 181.5,428.0 182.0,427.5 182.5,427.0 183.0,426.5 184.0,426.5 184.5,426.0 185.0,425.5 185.5,425.0 186.0,424.5 186.5,424.0 187.0,423.5 187.5,423.0 188.0,422.5 189.0,422.5 189.5,422.0 190.0,421.5 190.5,421.0 191.0,420.5 191.5,420.0 192.0,419.5 193.0,419.5 193.5,419.0 194.0,418.5 194.5,418.0 195.0,417.5 195.5,417.0 196.0,416.5 196.5,416.0 197.0,415.5 198.0,415.5 198.5,415.0 199.0,414.5 199.5,414.0 200.0,413.5 200.5,413.0 201.0,412.5 202.0,412.5 202.5,412.0 203.0,411.5 203.5,411.0 204.0,410.5 204.5,410.0 205.0,409.5 206.0,409.5 206.5,409.0 207.0,408.5 207.5,408.0 208.0,407.5 208.5,407.0 209.0,406.5 210.0,406.5 210.5,406.0 211.0,405.5 211.5,405.0 212.0,404.5 212.5,404.0 213.0,403.5 213.5,403.0 214.0,402.5 214.5,402.0 215.0,401.5 215.5,401.0 216.0,400.5 216.5,400.0 216.5,399.0 216.5,398.0 217.0,397.5 217.5,397.0 217.5,396.0 217.5,395.0 217.5,394.0 217.0,393.5 216.5,393.0 216.5,392.0 216.5,391.0 216.5,390.0 216.0,389.5 215.5,389.0 215.5,388.0 215.5,387.0 215.5,386.0 215.5,385.0 215.5,384.0 215.0,383.5 214.5,383.0 214.5,382.0 214.5,381.0 214.5,380.0 214.5,379.0 214.0,378.5 213.5,378.0 213.5,377.0 213.5,376.0 213.5,375.0 213.0,374.5 212.5,374.0 212.5,373.0 212.5,372.0 212.5,371.0 212.5,370.0 212.0,369.5 211.5,369.0 211.5,368.0 211.5,367.0 211.5,366.0 211.5,365.0 211.0,364.5 210.5,364.0 210.5,363.0 210.5,362.0 210.5,361.0 210.5,360.0 210.0,359.5 209.5,359.0 209.5,358.0 209.5,357.0 209.5,356.0 209.5,355.0 209.0,354.5 208.5,354.0 208.5,353.0 208.5,352.0 208.5,351.0 208.5,350.0 208.0,349.5 207.5,349.0 207.5,348.0 207.5,347.0 207.5,346.0 207.0,345.5 206.5,345.0 206.5,344.0 206.5,343.0 206.5,342.0 206.5,341.0 206.0,340.5 205.5,340.0 205.5,339.0 205.5,338.0 205.5,337.0 205.0,336.5 204.5,336.0 204.5,335.0 204.0,334.5 203.5,334.0 203.0,333.5 202.5,333.0 202.0,332.5 201.5,332.0 201.0,331.5 200.0,331.5 199.5,331.0 199.0,330.5 198.0,330.5 197.0,330.5 196.0,330.5 195.0,330.5 194.0,330.5 193.0,330.5 192.0,330.5 191.0,330.5 190.0,330.5 189.0,330.5 188.5,330.0 188.0,329.5 187.0,329.5 186.0,329.5 185.0,329.5 184.0,329.5 183.0,329.5 182.0,329.5 181.0,329.5 180.0,329.5 179.0,329.5 178.0,329.5 177.0,329.5 176.5,329.0 176.0,328.5 175.0,328.5 174.0,328.5 173.0,328.5 172.0,328.5 171.0,328.5 170.0,328.5 169.0,328.5 168.0,328.5 167.0,328.5 166.0,328.5 165.0,328.5 164.0,328.5 163.0,328.5 162.5,328.0 162.0,327.5 161.0,327.5 160.0,327.5 159.0,327.5 158.0,327.5 157.0,327.5 156.0,327.5 155.0,327.5 154.0,327.5 153.0,327.5 152.0,327.5 151.0,327.5 150.0,327.5 149.5,327.0 149.0,326.5 148.0,326.5 147.0,326.5 146.0,326.5 145.0,326.5 144.0,326.5 143.0,326.5 142.0,326.5 141.0,326.5 140.0,326.5 139.0,326.5 138.0,326.5 137.0,326.5 136.5,326.0 136.0,325.5 135.0,325.5 134.0,325.5 133.0,325.5 132.0,325.5 131.0,325.5 130.0,325.5 129.0,325.5 128.0,325.5 127.0,325.5 126.0,325.5 125.0,325.5 124.5,325.0 124.0,324.5 123.0,324.5 122.0,324.5 121.0,324.5 120.0,324.5 119.0,324.5 118.0,324.5 117.0,324.5 116.0,324.5 115.0,324.5 114.0,324.5 113.0,324.5 112.0,324.5 111.5,324.0 111.0,323.5 110.0,323.5 109.0,323.5 108.0,323.5 107.0,323.5 106.0,323.5 105.0,323.5 104.0,323.5 103.0,323.5 102.0,323.5 101.0,323.5 100.5,324.0 100.0,324.5 99.0,324.5 98.5,325.0 98.0,325.5 97.5,326.0 97.0,326.5 96.5,327.0 96.0,327.5 95.5,328.0 95.5,329.0 95.0,329.5 94.5,330.0 94.5,331.0 94.5,332.0 94.5,333.0 94.5,334.0 94.5,335.0 94.5,336.0 94.5,337.0 94.5,338.0 94.5,339.0 94.5,340.0 94.5,341.0 94.5,342.0 95.0,342.5 95.5,343.0 95.5,344.0 95.5,345.0 95.5,346.0 95.5,347.0 95.5,348.0 95.5,349.0 95.5,350.0 95.5,351.0 95.5,352.0 95.5,353.0 95.5,354.0 95.5,355.0 95.5,356.0 95.5,357.0 96.0,357.5 96.5,358.0 96.5,359.0 96.5,360.0 96.5,361.0 96.5,362.0 96.5,363.0 96.5,364.0 96.5,365.0 96.5,366.0 96.5,367.0 96.5,368.0 96.5,369.0 96.5,370.0 96.5,371.0 97.0,371.5 97.5,372.0 97.5,373.0 97.5,374.0 97.5,375.0 97.5,376.0 97.5,377.0 97.5,378.0 97.5,379.0 97.5,380.0 97.5,381.0 97.5,382.0 97.5,383.0 97.5,384.0 97.5,385.0 98.0,385.5 98.5,386.0 98.5,387.0 98.5,388.0 98.5,389.0 98.5,390.0 98.5,391.0 98.5,392.0 98.5,393.0 98.5,394.0 98.5,395.0 98.5,396.0 98.5,397.0 98.5,398.0 98.5,399.0 99.0,399.5 99.5,400.0 99.5,401.0 99.5,402.0 99.5,403.0 99.5,404.0 99.5,405.0 99.5,406.0 99.5,407.0 99.5,408.0 99.5,409.0 99.5,410.0 99.5,411.0 99.5,412.0 99.5,413.0 100.0,413.5 100.5,414.0 100.5,415.0 100.5,416.0 100.5,417.0 100.5,418.0 100.5,419.0 100.5,420.0 100.5,421.0 100.5,422.0 100.5,423.0 100.5,424.0 100.5,425.0 100.5,426.0 100.5,427.0 100.5,428.0 101.0,428.5 101.5,429.0 101.5,430.0 101.5,431.0 101.5,432.0 101.5,433.0 101.5,434.0 101.5,435.0 101.5,436.0 101.5,437.0 101.5,438.0 101.5,439.0 101.5,440.0 101.5,441.0 101.5,442.0 102.0,442.5 102.5,443.0 102.5,444.0 102.5,445.0 102.5,446.0 102.5,447.0 102.5,448.0 102.5,449.0 102.5,450.0 102.5,451.0 102.5,452.0 102.5,453.0 102.5,454.0 102.5,455.0 102.5,456.0 103.0,456.5 103.5,457.0 103.5,458.0 103.5,459.0 103.5,460.0 103.5,461.0 103.5,462.0 103.5,463.0 103.5,464.0 103.5,465.0 103.5,466.0 103.5,467.0 103.5,468.0 103.5,469.0 104.0,469.5 104.5,470.0 104.5,471.0 104.5,472.0 104.5,473.0 105.0,473.5 105.5,474.0 106.0,474.5 106.5,475.0 107.0,475.5 107.5,476.0 108.0,476.5 108.5,477.0 109.0,477.5 110.0,477.5 111.0,477.5 112.0,477.5 112.5,478.0 113.0,478.5 113.5,478.0" stroke="none" /><polygon fill="lime" points="350.5,479.0 351.0,478.5 352.0,478.5 352.5,478.0 353.0,477.5 353.5,477.0 354.0,476.5 354.5,476.0 355.0,475.5 356.0,475.5 356.5,475.0 357.0,474.5 357.5,474.0 358.0,473.5 358.5,473.0 359.0,472.5 359.5,472.0 360.0,471.5 361.0,471.5 361.5,471.0 362.0,470.5 362.5,470.0 363.0,469.5 363.5,469.0 364.0,468.5 365.0,468.5 365.5,468.0 366.0,467.5 366.5,467.0 367.0,466.5 367.5,466.0 368.0,465.5 369.0,465.5 369.5,465.0 370.0,464.5 370.5,464.0 371.0,463.5 371.5,463.0 372.0,462.5 372.5,462.0 373.0,461.5 374.0,461.5 374.5,461.0 375.0,460.5 375.5,460.0 376.0,459.5 376.5,459.0 377.0,458.5 378.0,458.5 378.5,458.0 379.0,457.5 379.5,457.0 380.0,456.5 380.5,456.0 381.0,455.5 382.0,455.5 382.5,455.0 383.0,454.5 383.5,454.0 384.0,453.5 384.5,453.0 385.0,452.5 386.0,452.5 386.5,452.0 387.0,451.5 387.5,451.0 388.0,450.5 388.5,450.0 389.0,449.5 389.5,449.0 390.0,448.5 391.0,448.5 391.5,448.0 392.0,447.5 392.5,447.0 393.0,446.5 393.5,446.0 394.0,445.5 395.0,445.5 395.5,445.0 396.0,444.5 396.5,444.0 397.0,443.5 397.5,443.0 398.0,442.5 399.0,442.5 399.5,442.0 400.0,441.5 400.5,441.0 401.0,440.5 401.5,440.0 402.0,439.5 403.0,439.5 403.5,439.0 404.0,438.5 404.5,438.0 405.0,437.5 405.5,437.0 406.0,436.5 406.5,436.0 407.0,435.5 408.0,435.5 408.5,435.0 409.0,434.5 409.5,434.0 410.0,433.5 410.5,433.0 411.0,432.5 412.0,432.5 412.5,432.0 413.0,431.5 413.5,431.0 414.0,430.5 414.5,430.0 415.0,429.5 415.5,429.0 416.0,428.5 417.0,428.5 417.5,428.0 418.0,427.5 418.5,427.0 419.0,426.5 419.5,426.0 420.0,425.5 421.0,425.5 421.5,425.0 422.0,424.5 422.5,424.0 423.0,423.5 423.5,423.0 424.0,422.5 425.0,422.5 425.5,422.0 426.0,421.5 426.5,421.0 427.0,420.5 427.5,420.0 428.0,419.5 429.0,419.5 429.5,419.0 430.0,418.5 430.5,418.0 431.0,417.5 431.5,417.0 432.0,416.5 432.5,416.0 433.0,415.5 434.0,415.5 434.5,415.0 435.0,414.5 435.5,414.0 436.0,413.5 436.5,413.0 437.0,412.5 438.0,412.5 438.5,412.0 439.0,411.5 439.5,411.0 440.0,410.5 440.5,410.0 441.0,409.5 441.5,409.0 442.0,408.5 443.0,408.5 443.5,408.0 444.0,407.5 444.5,407.0 445.0,406.5 446.0,406.5 446.5,406.0 447.0,405.5 447.5,405.0 448.0,404.5 448.5,404.0 449.0,403.5 449.5,403.0 449.5,402.0 450.0,401.5 450.5,401.0 450.5,400.0 450.5,399.0 451.0,398.5 451.5,398.0 451.5,397.0 451.0,396.5 450.5,396.0 450.5,395.0 450.5,394.0 450.5,393.0 450.5,392.0 450.0,391.5 449.5,391.0 449.5,390.0 449.5,389.0 449.5,388.0 449.5,387.0 449.0,386.5 448.5,386.0 448.5,385.0 448.5,384.0 448.5,383.0 448.5,382.0 448.0,381.5 447.5,381.0 447.5,380.0 447.5,379.0 447.5,378.0 447.5,377.0 447.0,376.5 446.5,376.0 446.5,375.0 446.5,374.0 446.5,373.0 446.5,372.0 446.0,371.5 445.5,371.0 445.5,370.0 445.5,369.0 445.5,368.0 445.0,367.5 444.5,367.0 444.5,366.0 444.5,365.0 444.5,364.0 444.5,363.0 444.0,362.5 443.5,362.0 443.5,361.0 443.5,360.0 443.5,359.0 443.5,358.0 443.5,357.0 443.0,356.5 442.5,356.0 442.5,355.0 442.5,354.0 442.5,353.0 442.0,352.5 441.5,352.0 441.5,351.0 441.5,350.0 441.5,349.0 441.5,348.0 441.0,347.5 440.5,347.0 440.5,346.0 440.5,345.0 440.5,344.0 440.5,343.0 440.0,342.5 439.5,342.0 439.5,341.0 439.5,340.0 439.5,339.0 439.0,338.5 438.5,338.0 438.5,337.0 438.0,336.5 437.5,336.0 437.0,335.5 436.5,335.0 436.0,334.5 435.5,334.0 435.0,333.5 434.0,333.5 433.5,333.0 433.0,332.5 432.0,332.5 431.0,332.5 430.0,332.5 429.0,332.5 428.0,332.5 427.0,332.5 426.5,332.0 426.0,331.5 425.0,331.5 424.0,331.5 423.0,331.5 422.0,331.5 421.0,331.5 420.0,331.5 419.0,331.5 418.0,331.5 417.0,331.5 416.0,331.5 415.0,331.5 414.0,331.5 413.5,331.0 413.0,330.5 412.0,330.5 411.0,330.5 410.0,330.5 409.0,330.5 408.0,330.5 407.0,330.5 406.0,330.5 405.0,330.5 404.0,330.5 403.0,330.5 402.0,330.5 401.5,330.0 401.0,329.5 400.0,329.5 399.0,329.5 398.0,329.5 397.0,329.5 396.0,329.5 395.0,329.5 394.0,329.5 393.0,329.5 392.0,329.5 391.0,329.5 390.0,329.5 389.0,329.5 388.5,329.0 388.0,328.5 387.0,328.5 386.0,328.5 385.0,328.5 384.0,328.5 383.0,328.5 382.0,328.5 381.0,328.5 380.0,328.5 379.0,328.5 378.0,328.5 377.0,328.5 376.0,328.5 375.5,328.0 375.0,327.5 374.0,327.5 373.0,327.5 372.0,327.5 371.0,327.5 370.0,327.5 369.0,327.5 368.0,327.5 367.0,327.5 366.0,327.5 365.0,327.5 364.0,327.5 363.0,327.5 362.0,327.5 361.5,327.0 361.0,326.5 360.0,326.5 359.0,326.5 358.0,326.5 357.0,326.5 356.0,326.5 355.0,326.5 354.0,326.5 353.0,326.5 352.0,326.5 351.0,326.5 350.0,326.5 349.0,326.5 348.5,326.0 348.0,325.5 347.0,325.5 346.0,325.5 345.0,325.5 344.0,325.5 343.0,325.5 342.0,325.5 341.0,325.5 340.0,325.5 339.0,325.5 338.0,325.5 337.0,325.5 336.0,325.5 335.0,325.5 334.0,325.5 333.5,326.0 333.0,326.5 332.5,327.0 332.0,327.5 331.0,327.5 330.5,328.0 330.0,328.5 329.5,329.0 329.5,330.0 329.0,330.5 328.5,331.0 328.5,332.0 328.5,333.0 328.5,334.0 328.5,335.0 328.5,336.0 328.5,337.0 328.5,338.0 328.5,339.0 328.5,340.0 328.5,341.0 328.5,342.0 328.5,343.0 328.5,344.0 328.5,345.0 328.5,346.0 328.5,347.0 328.5,348.0 329.0,348.5 329.5,349.0 329.5,350.0 329.5,351.0 329.5,352.0 329.5,353.0 329.5,354.0 329.5,355.0 329.5,356.0 329.5,357.0 329.5,358.0 329.5,359.0 329.5,360.0 329.5,361.0 330.0,361.5 330.5,362.0 330.5,363.0 330.5,364.0 330.5,365.0 330.5,366.0 330.5,367.0 330.5,368.0 330.5,369.0 330.5,370.0 330.5,371.0 330.5,372.0 330.5,373.0 330.5,374.0 330.5,375.0 331.0,375.5 331.5,376.0 331.5,377.0 331.5,378.0 331.5,379.0 331.5,380.0 331.5,381.0 331.5,382.0 331.5,383.0 331.5,384.0 331.5,385.0 331.5,386.0 331.5,387.0 331.5,388.0 332.0,388.5 332.5,389.0 332.5,390.0 332.5,391.0 332.5,392.0 332.5,393.0 332.5,394.0 332.5,395.0 332.5,396.0 332.5,397.0 332.5,398.0 332.5,399.0 332.5,400.0 332.5,401.0 332.5,402.0 332.5,403.0 332.5,404.0 333.0,404.5 333.5,405.0 333.5,406.0 333.5,407.0 333.5,408.0 333.5,409.0 333.5,410.0 333.5,411.0 333.5,412.0 333.5,413.0 333.5,414.0 333.5,415.0 333.5,416.0 333.5,417.0 333.5,418.0 333.5,419.0 334.0,419.5 334.5,420.0 334.5,421.0 334.5,422.0 334.5,423.0 334.5,424.0 334.5,425.0 334.5,426.0 334.5,427.0 334.5,428.0 334.5,429.0 334.5,430.0 334.5,431.0 334.5,432.0 334.5,433.0 335.0,433.5 335.5,434.0 335.5,435.0 335.5,436.0 335.5,437.0 335.5,438.0 335.5,439.0 335.5,440.0 335.5,441.0 335.5,442.0 335.5,443.0 335.5,444.0 335.5,445.0 335.5,446.0 336.0,446.5 336.5,447.0 336.5,448.0 336.5,449.0 336.5,450.0 336.5,451.0 336.5,452.0 336.5,453.0 336.5,454.0 336.5,455.0 336.5,456.0 336.5,457.0 336.5,458.0 336.5,459.0 336.5,460.0 337.0,460.5 337.5,461.0 337.5,462.0 337.5,463.0 337.5,464.0 337.5,465.0 337.5,466.0 337.5,467.0 337.5,468.0 337.5,469.0 337.5,470.0 337.5,471.0 337.5,472.0 337.5,473.0 338.0,473.5 338.5,474.0 338.5,475.0 339.0,475.5 339.5,476.0 340.0,476.5 340.5,477.0 341.0,477.5 341.5,478.0 342.0,478.5 343.0,478.5 343.5,479.0 344.0,479.5 345.0,479.5 346.0,479.5 347.0,479.5 348.0,479.5 349.0,479.5 350.0,479.5 350.5,479.0" stroke="none" /><polygon fill="lime" points="115.0,457.5 114.5,457.0 114.0,456.5 113.0,456.5 112.5,456.0 112.5,455.0 112.5,454.0 112.5,453.0 112.5,452.0 112.5,451.0 112.5,450.0 112.5,449.0 112.0,448.5 111.5,448.0 111.5,447.0 111.5,446.0 111.5,445.0 111.5,444.0 111.5,443.0 111.5,442.0 111.5,441.0 111.5,440.0 111.5,439.0 111.5,438.0 111.5,437.0 111.5,436.0 111.5,435.0 111.0,434.5 110.5,434.0 110.5,433.0 110.5,432.0 110.5,431.0 110.5,430.0 110.5,429.0 110.5,428.0 110.5,427.0 110.5,426.0 110.5,425.0 110.5,424.0 110.5,423.0 110.5,422.0 110.5,421.0 110.0,420.5 109.5,420.0 109.5,419.0 109.5,418.0 109.5,417.0 109.5,416.0 109.5,415.0 109.5,414.0 109.5,413.0 109.5,412.0 109.5,411.0 109.5,410.0 109.5,409.0 109.5,408.0 109.5,407.0 109.0,406.5 108.5,406.0 108.5,405.0 108.5,404.0 108.5,403.0 108.5,402.0 108.5,401.0 108.5,400.0 108.5,399.0 108.5,398.0 108.5,397.0 108.5,396.0 108.5,395.0 108.5,394.0 108.5,393.0 108.5,392.0 108.0,391.5 107.5,391.0 107.5,390.0 107.5,389.0 107.5,388.0 107.5,387.0 107.5,386.0 107.5,385.0 107.5,384.0 107.5,383.0 107.5,382.0 107.5,381.0 107.5,380.0 107.5,379.0 107.5,378.0 107.0,377.5 106.5,377.0 106.5,376.0 106.5,375.0 106.5,374.0 106.5,373.0 106.5,372.0 106.5,371.0 106.5,370.0 106.5,369.0 106.5,368.0 106.5,367.0 106.5,366.0 106.5,365.0 106.5,364.0 106.0,363.5 105.5,363.0 105.5,362.0 105.5,361.0 105.5,360.0 105.5,359.0 105.5,358.0 105.5,357.0 105.5,356.0 105.5,355.0 105.5,354.0 105.5,353.0 105.5,352.0 105.5,351.0 105.5,350.0 105.0,349.5 104.5,349.0 104.5,348.0 104.5,347.0 104.5,346.0 104.5,345.0 104.5,344.0 104.5,343.0 104.5,342.0 104.5,341.0 104.5,340.0 104.5,339.0 104.5,338.0 104.5,337.0 104.5,336.0 104.5,335.0 105.0,334.5 105.5,334.0 106.0,333.5 107.0,333.5 108.0,333.5 109.0,333.5 110.0,333.5 111.0,333.5 112.0,333.5 113.0,333.5 114.0,333.5 115.0,333.5 116.0,333.5 117.0,333.5 117.5,334.0 118.0,334.5 119.0,334.5 120.0,334.5 121.0,334.5 122.0,334.5 123.0,334.5 124.0,334.5 125.0,334.5 126.0,334.5 127.0,334.5 128.0,334.5 129.0,334.5 129.5,335.0 130.0,335.5 131.0,335.5 132.0,335.5 133.0,335.5 134.0,335.5 135.0,335.5 136.0,335.5 137.0,335.5 138.0,335.5 139.0,335.5 140.0,335.5 141.0,335.5 142.0,335.5 142.5,336.0 143.0,336.5 144.0,336.5 145.0,336.5 146.0,336.5 147.0,336.5 148.0,336.5 149.0,336.5 150.0,336.5 151.0,336.5 152.0,336.5 153.0,336.5 154.0,336.5 155.0,336.5 156.0,336.5 156.5,337.0 157.0,337.5 158.0,337.5 159.0,337.5 160.0,337.5 161.0,337.5 162.0,337.5 163.0,337.5 164.0,337.5 165.0,337.5 166.0,337.5 167.0,337.5 168.0,337.5 169.0,337.5 169.5,338.0 170.0,338.5 171.0,338.5 172.0,338.5 173.0,338.5 174.0,338.5 175.0,338.5 176.0,338.5 177.0,338.5 178.0,338.5 179.0,338.5 180.0,338.5 181.0,338.5 181.5,339.0 182.0,339.5 183.0,339.5 184.0,339.5 185.0,339.5 186.0,339.5 187.0,339.5 188.0,339.5 188.5,340.0 189.0,340.5 189.5,341.0 189.5,342.0 189.5,343.0 189.5,344.0 189.0,344.5 188.5,345.0 188.0,345.5 187.5,346.0 187.5,347.0 187.0,347.5 186.5,348.0 186.0,348.5 185.5,349.0 185.5,350.0 185.0,350.5 184.5,351.0 184.5,352.0 184.0,352.5 183.5,353.0 183.0,353.5 182.5,354.0 182.5,355.0 182.0,355.5 181.5,356.0 181.0,356.5 180.5,357.0 180.5,358.0 180.0,358.5 179.5,359.0 179.0,359.5 178.5,360.0 178.5,361.0 178.0,361.5 177.5,362.0 177.5,363.0 177.0,363.5 176.5,364.0 176.0,364.5 175.5,365.0 175.5,366.0 175.0,366.5 174.5,367.0 174.0,367.5 173.5,368.0 173.5,369.0 173.0,369.5 172.5,370.0 172.0,370.5 171.5,371.0 171.5,372.0 171.0,372.5 170.5,373.0 170.0,373.5 169.5,374.0 169.5,375.0 169.0,375.5 168.5,376.0 168.0,376.5 167.5,377.0 167.5,378.0 167.0,378.5 166.5,379.0 166.5,380.0 166.0,380.5 165.5,381.0 165.0,381.5 164.5,382.0 164.5,383.0 164.0,383.5 163.5,384.0 163.0,384.5 162.5,385.0 162.5,386.0 162.0,386.5 161.5,387.0 161.0,387.5 160.5,388.0 160.5,389.0 160.0,389.5 159.5,390.0 159.5,391.0 159.0,391.5 158.5,392.0 158.0,392.5 157.5,393.0 157.5,394.0 157.0,394.5 156.5,395.0 156.0,395.5 155.5,396.0 155.5,397.0 155.0,397.5 154.5,398.0 154.0,398.5 153.5,399.0 153.5,400.0 153.0,400.5 152.5,401.0 152.0,401.5 151.5,402.0 151.5,403.0 151.0,403.5 150.5,404.0 150.5,405.0 150.0,405.5 149.5,406.0 149.0,406.5 148.5,407.0 148.5,408.0 148.0,408.5 147.5,409.0 147.0,409.5 146.5,410.0 146.5,411.0 146.0,411.5 145.5,412.0 145.0,412.5 144.5,413.0 144.5,414.0 144.0,414.5 143.5,415.0 143.0,415.5 142.5,416.0 142.5,417.0 142.0,417.5 141.5,418.0 141.5,419.0 141.0,419.5 140.5,420.0 140.0,420.5 139.5,421.0 139.5,422.0 139.0,422.5 138.5,423.0 138.0,423.5 137.5,424.0 137.5,425.0 137.0,425.5 136.5,426.0 136.0,426.5 135.5,427.0 135.5,428.0 135.0,428.5 134.5,429.0 134.5,430.0 134.0,430.5 133.5,431.0 133.0,431.5 132.5,432.0 132.5,433.0 132.0,433.5 131.5,434.0 131.0,434.5 130.5,435.0 130.5,436.0 130.0,436.5 129.5,437.0 129.0,437.5 128.5,438.0 128.5,439.0 128.0,439.5 127.5,440.0 127.0,440.5 126.5,441.0 126.5,442.0 126.0,442.5 125.5,443.0 125.0,443.5 124.5,444.0 124.5,445.0 124.0,445.5 123.5,446.0 123.5,447.0 123.0,447.5 122.5,448.0 122.0,448.5 121.5,449.0 121.5,450.0 121.0,450.5 120.5,451.0 120.0,451.5 119.5,452.0 119.5,453.0 119.0,453.5 118.5,454.0 118.0,454.5 117.5,455.0 117.5,456.0 117.0,456.5 116.0,456.5 115.5,457.0 115.0,457.5" stroke="none" /><polygon fill="lime" points="350.0,458.5 349.0,458.5 348.0,458.5 347.5,458.0 347.0,457.5 346.5,457.0 346.5,456.0 346.5,455.0 346.5,454.0 346.5,453.0 346.0,452.5 345.5,452.0 345.5,451.0 345.5,450.0 345.5,449.0 345.5,448.0 345.5,447.0 345.5,446.0 345.5,445.0 345.5,444.0 345.5,443.0 345.5,442.0 345.5,441.0 345.5,440.0 345.5,439.0 345.0,438.5 344.5,438.0 344.5,437.0 344.5,436.0 344.5,435.0 344.5,434.0 344.5,433.0 344.5,432.0 344.5,431.0 344.5,430.0 344.5,429.0 344.5,428.0 344.5,427.0 344.5,426.0 344.5,425.0 344.0,424.5 343.5,424.0 343.5,423.0 343.5,422.0 343.5,421.0 343.5,420.0 343.5,419.0 343.5,418.0 343.5,417.0 343.5,416.0 343.5,415.0 343.5,414.0 343.5,413.0 343.5,412.0 343.5,411.0 343.0,410.5 342.5,410.0 342.5,409.0 342.5,408.0 342.5,407.0 342.5,406.0 342.5,405.0 342.5,404.0 342.5,403.0 342.5,402.0 342.5,401.0 342.5,400.0 342.5,399.0 342.5,398.0 342.5,397.0 342.0,396.5 341.5,396.0 341.5,395.0 341.5,394.0 341.5,393.0 341.5,392.0 341.5,391.0 341.5,390.0 341.5,389.0 341.5,388.0 341.5,387.0 341.5,386.0 341.5,385.0 341.5,384.0 341.5,383.0 341.5,382.0 341.0,381.5 340.5,381.0 340.5,380.0 340.5,379.0 340.5,378.0 340.5,377.0 340.5,376.0 340.5,375.0 340.5,374.0 340.5,373.0 340.5,372.0 340.5,371.0 340.5,370.0 340.5,369.0 340.5,368.0 340.0,367.5 339.5,367.0 339.5,366.0 339.5,365.0 339.5,364.0 339.5,363.0 339.5,362.0 339.5,361.0 339.5,360.0 339.5,359.0 339.5,358.0 339.5,357.0 339.5,356.0 339.5,355.0 339.0,354.5 338.5,354.0 338.5,353.0 338.5,352.0 338.5,351.0 338.5,350.0 338.5,349.0 338.5,348.0 338.5,347.0 338.5,346.0 338.5,345.0 338.5,344.0 338.5,343.0 338.5,342.0 338.5,341.0 338.5,340.0 338.0,339.5 337.5,339.0 338.0,338.5 338.5,338.0 338.5,337.0 339.0,336.5 339.5,336.0 340.0,335.5 341.0,335.5 341.5,335.0 342.0,334.5 342.5,335.0 343.0,335.5 344.0,335.5 345.0,335.5 346.0,335.5 347.0,335.5 348.0,335.5 349.0,335.5 350.0,335.5 351.0,335.5 352.0,335.5 353.0,335.5 354.0,335.5 355.0,335.5 355.5,336.0 356.0,336.5 357.0,336.5 358.0,336.5 359.0,336.5 360.0,336.5 361.0,336.5 362.0,336.5 363.0,336.5 364.0,336.5 365.0,336.5 366.0,336.5 367.0,336.5 368.0,336.5 368.5,337.0 369.0,337.5 370.0,337.5 371.0,337.5 372.0,337.5 373.0,337.5 374.0,337.5 375.0,337.5 376.0,337.5 377.0,337.5 378.0,337.5 379.0,337.5 380.0,337.5 381.0,337.5 381.5,338.0 382.0,338.5 383.0,338.5 384.0,338.5 385.0,338.5 386.0,338.5 387.0,338.5 388.0,338.5 389.0,338.5 390.0,338.5 391.0,338.5 392.0,338.5 393.0,338.5 394.0,338.5 394.5,339.0 395.0,339.5 396.0,339.5 397.0,339.5 398.0,339.5 399.0,339.5 400.0,339.5 401.0,339.5 402.0,339.5 403.0,339.5 404.0,339.5 405.0,339.5 406.0,339.5 406.5,340.0 407.0,340.5 408.0,340.5 409.0,340.5 410.0,340.5 411.0,340.5 412.0,340.5 413.0,340.5 414.0,340.5 415.0,340.5 416.0,340.5 417.0,340.5 418.0,340.5 419.0,340.5 419.5,341.0 420.0,341.5 421.0,341.5 422.0,341.5 422.5,342.0 422.5,343.0 423.0,343.5 423.5,344.0 423.5,345.0 423.0,345.5 422.5,346.0 422.5,347.0 422.0,347.5 421.5,348.0 421.0,348.5 420.5,349.0 420.5,350.0 420.0,350.5 419.5,351.0 419.0,351.5 418.5,352.0 418.5,353.0 418.0,353.5 417.5,354.0 417.0,354.5 416.5,355.0 416.5,356.0 416.0,356.5 415.5,357.0 415.5,358.0 415.0,358.5 414.5,359.0 414.0,359.5 413.5,360.0 413.5,361.0 413.0,361.5 412.5,362.0 412.0,362.5 411.5,363.0 411.5,364.0 411.0,364.5 410.5,365.0 410.0,365.5 409.5,366.0 409.5,367.0 409.0,367.5 408.5,368.0 408.5,369.0 408.0,369.5 407.5,370.0 407.0,370.5 406.5,371.0 406.0,371.5 405.5,372.0 405.5,373.0 405.0,373.5 404.5,374.0 404.5,375.0 404.0,375.5 403.5,376.0 403.0,376.5 402.5,377.0 402.5,378.0 402.0,378.5 401.5,379.0 401.0,379.5 400.5,380.0 400.5,381.0 400.0,381.5 399.5,382.0 399.5,383.0 399.0,383.5 398.5,384.0 398.0,384.5 397.5,385.0 397.5,386.0 397.0,386.5 396.5,387.0 396.0,387.5 395.5,388.0 395.5,389.0 395.0,389.5 394.5,390.0 394.0,390.5 393.5,391.0 393.5,392.0 393.0,392.5 392.5,393.0 392.0,393.5 391.5,394.0 391.5,395.0 391.0,395.5 390.5,396.0 390.0,396.5 389.5,397.0 389.5,398.0 389.0,398.5 388.5,399.0 388.5,400.0 388.0,400.5 387.5,401.0 387.0,401.5 386.5,402.0 386.5,403.0 386.0,403.5 385.5,404.0 385.0,404.5 384.5,405.0 384.5,406.0 384.0,406.5 383.5,407.0 383.0,407.5 382.5,408.0 382.5,409.0 382.0,409.5 381.5,410.0 381.5,411.0 381.0,411.5 380.5,412.0 380.0,412.5 379.5,413.0 379.5,414.0 379.0,414.5 378.5,415.0 378.0,415.5 377.5,416.0 377.5,417.0 377.0,417.5 376.5,418.0 376.0,418.5 375.5,419.0 375.5,420.0 375.0,420.5 374.5,421.0 374.0,421.5 373.5,422.0 373.5,423.0 373.0,423.5 372.5,424.0 372.5,425.0 372.0,425.5 371.5,426.0 371.0,426.5 370.5,427.0 370.5,428.0 370.0,428.5 369.5,429.0 369.0,429.5 368.5,430.0 368.5,431.0 368.0,431.5 367.5,432.0 367.0,432.5 366.5,433.0 366.5,434.0 366.0,434.5 365.5,435.0 365.0,435.5 364.5,436.0 364.5,437.0 364.0,437.5 363.5,438.0 363.5,439.0 363.0,439.5 362.5,440.0 362.0,440.5 361.5,441.0 361.5,442.0 361.0,442.5 360.5,443.0 360.0,443.5 359.5,444.0 359.5,445.0 359.0,445.5 358.5,446.0 358.0,446.5 357.5,447.0 357.5,448.0 357.0,448.5 356.5,449.0 356.5,450.0 356.0,450.5 355.5,451.0 355.0,451.5 354.5,452.0 354.5,453.0 354.0,453.5 353.5,454.0 353.0,454.5 352.5,455.0 352.5,456.0 352.0,456.5 351.5,457.0 351.0,457.5 350.5,458.0 350.0,458.5" stroke="none" /></svg>